<?xml version="1.0" encoding="utf-8"?>
<!-- Generator: Adobe Illustrator 27.2.0, SVG Export Plug-In . SVG Version: 6.00 Build 0)  -->
<svg version="1.1" id="Layer_1" xmlns="http://www.w3.org/2000/svg" xmlns:xlink="http://www.w3.org/1999/xlink" x="0px" y="0px"
	 viewBox="0 0 1000 1000" style="enable-background:new 0 0 1000 1000;" xml:space="preserve">
<style type="text/css">
	.st0{fill:#34486C;}
</style>
<g>
	<path class="st0" d="M496.85,150c47.32,0,93.14,9.23,136.19,27.44c41.66,17.62,79.11,42.88,111.3,75.07s57.45,69.64,75.07,111.3
		c18.21,43.05,27.44,88.87,27.44,136.19s-9.23,93.14-27.44,136.19c-17.62,41.66-42.88,79.11-75.07,111.3s-69.64,57.45-111.3,75.07
		C589.99,840.77,544.17,850,496.85,850s-93.14-9.23-136.19-27.44c-41.66-17.62-79.11-42.88-111.3-75.07s-57.45-69.64-75.07-111.3
		c-18.21-43.05-27.44-88.87-27.44-136.19s9.23-93.14,27.44-136.19c17.62-41.66,42.88-79.11,75.07-111.3s69.64-57.45,111.3-75.07
		C403.72,159.23,449.54,150,496.85,150 M496.85,0c-276.14,0-500,223.86-500,500s223.86,500,500,500s500-223.86,500-500
		S773,0,496.85,0L496.85,0z"/>
</g>
</svg>
