<?xml version="1.0" encoding="utf-8"?>
<!-- Generator: Adobe Illustrator 27.2.0, SVG Export Plug-In . SVG Version: 6.00 Build 0)  -->
<svg version="1.1" id="Layer_1" xmlns="http://www.w3.org/2000/svg" xmlns:xlink="http://www.w3.org/1999/xlink" x="0px" y="0px"
	 viewBox="0 0 1000 1000" style="enable-background:new 0 0 1000 1000;" xml:space="preserve">
<style type="text/css">
	.st0{fill:#34486C;}
</style>
<path class="st0" d="M606.07,500l367.77-367.77c29.29-29.29,29.29-76.78,0-106.07c-29.29-29.29-76.78-29.29-106.07,0L500,393.93
	L133.55,27.49C104.26-1.8,56.78-1.8,27.49,27.49c-29.29,29.29-29.29,76.78,0,106.07L393.93,500L26.17,867.77
	c-29.29,29.29-29.29,76.78,0,106.07c14.64,14.64,33.84,21.97,53.03,21.97s38.39-7.32,53.03-21.97L500,606.07l366.45,366.45
	c14.64,14.64,33.84,21.97,53.03,21.97s38.39-7.32,53.03-21.97c29.29-29.29,29.29-76.78,0-106.07L606.07,500z"/>
</svg>
