<?xml version="1.0" encoding="UTF-8"?>
<svg id="Layer_1" data-name="Layer 1" xmlns="http://www.w3.org/2000/svg" viewBox="0 0 1000 1000">
  <path d="m898.54,801.96c-28.32,37.35-61.79,70.58-99.33,98.67L99.37,200.79c28.09-37.54,61.32-71.01,98.67-99.33l100.26,100.26,499.98,499.98,100.26,100.26Z"/>
  <path d="m500,0c-113.44,0-218.06,37.78-301.96,101.46-37.35,28.32-70.58,61.79-98.67,99.33C36.96,284.22,0,387.8,0,500c0,276.14,223.86,500,500,500,112.2,0,215.78-36.96,299.21-99.37,37.54-28.09,71.01-61.32,99.33-98.67,63.68-83.9,101.46-188.52,101.46-301.96C1000,223.86,776.14,0,500,0Zm254.56,754.56c-17.18,17.18-35.81,32.44-55.75,45.67-18.49,12.28-38.11,22.81-58.73,31.54-44.29,18.73-91.42,28.23-140.08,28.23s-95.79-9.5-140.09-28.23c-42.85-18.13-81.36-44.1-114.47-77.21s-59.08-71.62-77.21-114.47c-18.73-44.3-28.23-91.43-28.23-140.09s9.5-95.79,28.23-140.09c8.73-20.62,19.26-40.24,31.54-58.72,13.23-19.94,28.49-38.57,45.67-55.75s34.01-30.95,52.86-43.72c19.33-13.12,39.91-24.31,61.61-33.49,44.3-18.73,91.43-28.23,140.09-28.23s95.79,9.5,140.08,28.23c42.86,18.13,81.37,44.1,114.48,77.21,33.1,33.11,59.08,71.62,77.21,114.47,18.73,44.3,28.23,91.43,28.23,140.09s-9.5,95.79-28.23,140.09c-9.18,21.7-20.37,42.28-33.49,61.61-12.77,18.85-27.38,36.51-43.72,52.86Z"/>
</svg>