<?xml version="1.0" encoding="utf-8"?>
<!-- Generator: Adobe Illustrator 27.2.0, SVG Export Plug-In . SVG Version: 6.00 Build 0)  -->
<svg version="1.1" id="Layer_1" xmlns="http://www.w3.org/2000/svg" xmlns:xlink="http://www.w3.org/1999/xlink" x="0px" y="0px"
	 viewBox="0 0 1000 1000" style="enable-background:new 0 0 1000 1000;" xml:space="preserve">
<style type="text/css">
	.st0{fill:#34486C;}
</style>
<g>
	<path class="st0" d="M767.8,678.07c-92.11-7.19-110.86-19.56-134.13-61.01c-23.01-1.4-43.08-2.4-63.11-3.96
		c-8.26-0.64-16.41-2.54-24.63-3.79c-12.7-1.92-30.19,16.36-27.51,28.74c5.95,27.52,11.99,55.03,17.82,82.58
		c0.94,4.46,1.83,9.19,1.34,13.64c-1.39,12.55-11.69,21.93-24.09,22.81c-14.11,1-24.81-7.27-28.39-22.99
		c-6.47-28.36-12.26-56.88-18.93-85.2c-0.95-4.02-4.53-9.33-8.07-10.51c-29.31-9.76-58.98-18.44-88.39-27.93
		c-32.51-10.5-64.92-21.3-97.23-32.41c-14.79-5.08-21.93-19.11-17.75-32.82c4.29-14.08,17.53-21.27,32.97-17.7
		c4.03,0.93,7.95,2.41,11.89,3.72c51.69,17.15,103.35,34.42,155.09,51.44c24.3,7.99,43.03-1.07,51.97-25.02
		c3.87-10.37,7.09-20.98,10.44-31.54c8.05-25.33-0.52-43.43-25.79-52.57c-20.83-7.53-42.02-14.05-63.05-21.04
		c-68.78-22.87-137.51-45.87-206.34-68.56c-24.73-8.15-43.55,1.68-52.23,26.55c-3.19,9.15-5.84,18.5-9.37,27.51
		c-4.88,12.45-4.04,23.43,3.13,35.36c30.45,50.66,60.38,101.64,89.71,152.95c4.77,8.34,7.69,18.92,7.82,28.51
		c0.74,51.75,0.33,103.52,0.33,155.28c0,28.36,7.04,35.53,34.95,35.53c146.04,0.01,292.07,0.01,438.11,0.02
		c26.11,0,34.14-7.75,34.22-33.72c0.12-40.67,0.04-81.34-0.02-122.01C768.56,685.92,768.06,681.91,767.8,678.07z"/>
	<path class="st0" d="M813.67,263.43c-11.18-2.71-22.71-4.04-34.08-5.95c-30.57-5.12-47.25,7.3-52.32,37.71
		c-10.4,62.37-21.3,124.65-31.96,186.97c-5.52,32.3-10.95,64.62-15.78,93.15c0.08,22.43,10.78,36.55,29.19,40.95
		c12.55,3,25.36,4.9,38.09,7.1c23.71,4.1,42.82-8.34,46.9-31.9c16.44-95.06,32.54-190.18,48.46-285.33
		C845.59,285.7,833.78,268.3,813.67,263.43z"/>
	<path class="st0" d="M568.83,539.19c-1.61,5.71-3.64,11.3-6.31,19.53c15.39,1.93,28.54,4.52,41.76,4.99
		c16.52,0.6,24.12-6.53,27.05-22.57c17.86-97.55,35.7-195.1,53.59-292.65c4.01-21.89-7.89-41.05-29.6-46.05
		c-11.67-2.68-23.64-4.15-35.53-5.82c-28.4-3.98-45.23,8.23-49.59,36.57c-10.03,65.24-19.92,130.5-29.22,195.85
		c-0.74,5.19,2,12.45,5.65,16.43C571.59,472.77,578.77,503.87,568.83,539.19z"/>
	<path class="st0" d="M384.3,381.42c34.26,11.94,68.77,23.18,104.67,35.08c10.6-73.14,21.37-144.71,31.09-216.43
		c2.6-19.2-10.21-35.07-29.62-39.3c-13.48-2.94-27.31-4.48-41.04-6.09c-21.83-2.57-39.9,9.9-43.27,31.52
		c-9.6,61.55-18.46,123.22-27.14,184.91C378.52,374.35,381.56,380.46,384.3,381.42z"/>
	<path class="st0" d="M232.78,331.27c30.37,10.58,60.98,20.5,92.4,30.88c1.26-3.43,1.97-4.68,2.16-6.01
		c7.53-50.67,15.31-101.3,22.37-152.03c2.98-21.43-12.2-39.42-34.74-41.95c-12.37-1.39-24.88-1.55-37.34-2.05
		c-23.78-0.94-40.76,12.32-42.59,35.82c-3.27,41.88-5.2,83.87-7.25,125.83C227.64,324.94,230.24,330.39,232.78,331.27z"/>
</g>
</svg>
