<?xml version="1.0" encoding="utf-8"?>
<!-- Generator: Adobe Illustrator 27.2.0, SVG Export Plug-In . SVG Version: 6.00 Build 0)  -->
<svg version="1.1" id="Layer_1" xmlns="http://www.w3.org/2000/svg" xmlns:xlink="http://www.w3.org/1999/xlink" x="0px" y="0px"
	 viewBox="0 0 1000 1000" style="enable-background:new 0 0 1000 1000;" xml:space="preserve">
<style type="text/css">
	.st0{fill:#34486C;}
</style>
<path class="st0" d="M491.55,973.53c-69.8-0.1-139.6-0.18-209.39-0.33c-26.2-0.06-33.83-7.78-33.81-33.98
	c0.02-45.3-0.17-90.6,0.28-135.9c0.16-15.75-5.5-26.36-20.53-32.38c-5.75-2.3-10.93-6.79-15.5-11.19
	C147.41,696.9,82.36,633.9,17.3,570.92c-22.61-21.89-23.04-42.51-1.36-64.68c5.81-5.95,11.66-11.87,17.56-17.73
	c19.81-19.69,40.85-19.94,60.68-0.49c45.85,44.98,91.43,90.24,137.61,134.87c6.65,6.43,15.5,11.82,24.3,14.58
	c61.66,19.38,123.53,38.07,185.44,56.6c8.91,2.66,13.64,6.47,15.39,16.42c4.15,23.62,9.88,46.98,15.21,70.38
	c4.05,17.8,17.56,27.3,32.81,23.51c15.04-3.74,22.54-17.3,18.81-34.87c-6.62-31.17-13.81-62.22-20.14-93.45
	c-2.93-14.44-11.17-22.09-25.03-26.22c-62.83-18.74-125.46-38.13-188.26-56.98c-7.98-2.4-11.64-5.74-12.82-14.81
	c-19.36-149.33-39.3-298.59-58.94-447.89c-3.76-28.56,9.21-45.19,37.59-49.24c10.98-1.56,21.97-3.04,33-4.12
	c22.42-2.21,40.03,11.19,43.03,33.6c13.75,102.56,27.21,205.15,40.76,307.73c1.94,14.65,3.98,29.29,5.66,43.97
	c2.24,19.55,11.86,30.22,27.68,30.15c15.54-0.07,24.99-9.93,26.78-29.3c4.27-46,8.1-92.05,12.19-138.07
	c7.73-86.98,15.35-173.98,23.4-260.93c2.43-26.32,20.26-40.06,46.63-37.48c9.66,0.94,19.35,1.53,29,2.55
	c28.23,2.97,42.02,19.58,39.5,47.71c-5.66,63.04-11.46,126.06-17.15,189.09c-5.7,63.04-11.37,126.09-16.99,189.14
	c-1.61,18.1,5.71,30.16,19.87,33.2c14.59,3.13,25.91-3.98,32.76-20.98c44-109.22,87.98-218.45,131.86-327.72
	c12.39-30.86,30.39-38.66,61.32-26.04c8.13,3.32,16.32,6.48,24.38,9.94c25.2,10.82,33.2,29.73,23.09,54.85
	c-42.95,106.67-85.95,213.32-128.94,319.98c-0.52,1.29-1.08,2.55-1.6,3.84c-8.75,21.49-6.45,34.63,7.44,42.64
	c13.85,7.98,26.07,3.64,40.82-14.75C803.44,476.58,845.93,423,889,369.89c22.22-27.4,45.09-29.34,72.46-6.73
	c9.16,7.56,17.53,16.23,25.4,25.15c18.23,20.7,17.13,34.16-1.1,57.21c-81.08,102.51-161.94,205.2-242.35,308.23
	c-4.9,6.27-7.36,16.02-7.47,24.2c-0.73,52.69-0.48,105.39-0.57,158.08c-0.05,31.01-6.74,37.83-37.2,37.8
	C629.29,973.76,560.42,973.64,491.55,973.53z"/>
</svg>
