<?xml version="1.0" encoding="utf-8"?>
<!-- Generator: Adobe Illustrator 27.2.0, SVG Export Plug-In . SVG Version: 6.00 Build 0)  -->
<svg version="1.1" id="Layer_1" xmlns="http://www.w3.org/2000/svg" xmlns:xlink="http://www.w3.org/1999/xlink" x="0px" y="0px"
	 viewBox="0 0 1000 1000" style="enable-background:new 0 0 1000 1000;" xml:space="preserve">
<style type="text/css">
	.st0{fill:#34486C;}
</style>
<g>
	<path class="st0" d="M590.58,750.18c-28.1,8.55-54.98-0.69-80.07-15.68c-13.37-7.99-18.29,3.49-25.22,8.98
		c-3.32,2.63-5.07,10.12-4.17,14.75c5.74,29.45,12.74,58.65,18.68,88.06c3.99,19.75-13.91,36.34-32.61,30.85
		c-11.99-3.52-17.67-12.35-20.15-24.05c-5.84-27.54-11.63-55.09-18.13-82.48c-1.02-4.31-4.94-9.98-8.77-11.26
		c-61.74-20.53-123.77-40.17-185.44-60.91c-6.52-2.19-14.61-9.27-15.84-15.34c-1.71-8.38-0.02-19.51,4.58-26.64
		c7.01-10.87,19.36-10.66,31.3-6.68c54.28,18.09,108.56,36.18,162.93,53.99c24.11,7.9,42.92-1.64,51.55-25.65
		c4.06-11.28,8.06-22.61,11.43-34.11c6.42-21.91-3.18-41-24.64-48.81c-14.74-5.36-29.76-9.97-44.65-14.92
		c-74.9-24.92-149.78-49.9-224.7-74.75c-26.98-8.95-45.95,0.69-55,27.58c-3.38,10.06-6.66,20.16-10.24,30.15
		c-3.69,10.28-2.29,19.3,3.43,28.89c30.51,51.16,60.82,102.45,90.27,154.21c5.17,9.09,8.23,20.63,8.39,31.1
		c0.82,52.66,0.32,105.35,0.36,158.02c0.02,22.24,8.7,30.95,31.09,30.96c148.32,0.05,296.65,0.07,444.97,0.01
		c22.27-0.01,31.09-8.93,31.34-30.94c0.36-32.26,0.79-64.51,1.05-96.77c0.03-3.46-0.84-6.92-0.99-8.07
		C670.82,826.33,621.57,806.89,590.58,750.18z"/>
	<path class="st0" d="M403.46,521.73c17.67,5.27,35.01,11.64,52.49,17.55c23.76,8.04,24.33,8.29,34.78-14.89
		c10.16-22.54,23.25-44.89,27.61-68.69c14.47-78.96,25.62-158.53,37.98-237.87c7.18-46.06,14.23-92.14,21.05-136.4
		c0.84-20.19-10.73-36.44-28.9-40.69c-12.55-2.93-25.45-4.41-38.23-6.31c-26.33-3.91-43.78,9.05-47.91,35.52
		c-22.74,145.74-45.38,291.5-68.38,437.2C392.56,516.06,395.3,519.29,403.46,521.73z"/>
	<path class="st0" d="M182.05,258.73c9.72,62.46,19.26,124.96,29.45,187.34c0.87,5.3,5.01,12.81,9.39,14.37
		c37.32,13.28,75.04,25.43,114.5,38.54c-0.53-6.52-0.6-10.64-1.23-14.67c-10.95-70.68-21.92-141.35-32.98-212.01
		c-10.78-68.83-21.46-137.68-32.62-206.45c-3.62-22.32-21.9-34.96-44.22-31.88c-10.97,1.52-21.94,3.1-32.86,4.99
		c-28.09,4.87-40.28,22.32-35.87,50.17C164.57,145.63,173.26,202.19,182.05,258.73z"/>
	<path class="st0" d="M871.88,455.02c-17.27-18.07-40.98-25.43-60.8-32.15c-20.8,0.6-32.24,9.03-39.59,24.13
		c-20.19,41.49-40.66,82.85-60.93,124.31c-21.85,44.7-44.03,89.25-65.19,134.28c-11.03,23.48-3.32,41.11,20.18,51.87
		c6.25,2.86,11.98,6.87,18.2,9.8c28.98,13.66,53.84,16.52,69.95-20.75c10.97-25.38,24.07-49.84,36.24-74.7
		c28.19-57.62,56.27-115.29,84.67-172.81C882.25,483.51,883.9,467.6,871.88,455.02z"/>
	<path class="st0" d="M527.68,598.62c10.85,23.26,10.24,47.25,0.5,71.03c-1.53,3.74-2.35,7.77-3.77,12.58
		c10.92,5.39,20.88,11.19,31.48,15.32c17.05,6.64,30.89,2.9,40.98-12.58c6.83-10.48,10.36-23.06,15.92-34.43
		c38.27-78.31,76.46-156.65,115.19-234.73c9.78-19.71,5.45-37.54-14.5-48.39c-11.74-6.39-23.83-12.22-36.07-17.58
		c-20.72-9.06-40.91-1.61-51.19,18.91c-32.22,64.32-64.23,128.73-96.31,193.12C523.96,573.79,521.48,585.33,527.68,598.62z"/>
</g>
</svg>
