<?xml version="1.0" encoding="utf-8"?>
<!-- Generator: Adobe Illustrator 27.2.0, SVG Export Plug-In . SVG Version: 6.00 Build 0)  -->
<svg version="1.1" id="Layer_1" xmlns="http://www.w3.org/2000/svg" xmlns:xlink="http://www.w3.org/1999/xlink" x="0px" y="0px"
	 viewBox="0 0 1000 1000" style="enable-background:new 0 0 1000 1000;" xml:space="preserve">
<style type="text/css">
	.st0{fill:#34486C;}
</style>
<path class="st0" d="M698.51,1000H301.49c-97.45,0-158.34-105.5-109.64-189.9c46.85-81.16,117.76-134.55,196.25-160.17
	c19.2-6.27,21.47-32.54,3.8-42.32c-9.3-5.14-18.21-10.94-26.67-17.34c-37.81-28.64-66.56-69.3-80.13-117.38L246.32,335.5
	C198.81,167.29,325.2,0.27,500,0.27c149.6,0,263.77,122.35,263.77,263.08c0,23.71-3.24,47.91-10.1,72.15L714.9,472.88
	c-16.61,58.85-55.93,106.56-106.84,134.73c-17.66,9.77-15.37,36.05,3.82,42.31c78.49,25.62,149.41,79.01,196.26,160.18
	C856.85,894.5,795.96,1000,698.51,1000z"/>
</svg>
