<?xml version="1.0" encoding="utf-8"?>
<!-- Generator: Adobe Illustrator 27.2.0, SVG Export Plug-In . SVG Version: 6.00 Build 0)  -->
<svg version="1.1" id="Layer_1" xmlns="http://www.w3.org/2000/svg" xmlns:xlink="http://www.w3.org/1999/xlink" x="0px" y="0px"
	 viewBox="0 0 2045.16 1000" style="enable-background:new 0 0 2045.16 1000;" xml:space="preserve">
<style type="text/css">
	.st0{fill:#295CD4;}
</style>
<path class="st0" d="M603.19,498.68l366.45-366.45c29.29-29.29,29.29-76.78,0-106.07c-29.29-29.29-76.78-29.29-106.07,0
	L497.12,392.61L130.67,26.17c-29.29-29.29-76.78-29.29-106.07,0c-29.29,29.29-29.29,76.78,0,106.07l366.45,366.45L21.97,867.77
	c-29.29,29.29-29.29,76.78,0,106.07C36.61,988.48,55.81,995.8,75,995.8s38.39-7.32,53.03-21.97l369.09-369.09l366.45,366.45
	c14.64,14.64,33.84,21.97,53.03,21.97s38.39-7.32,53.03-21.97c29.29-29.29,29.29-76.78,0-106.07L603.19,498.68z"/>
<g>
	<g>
		<g>
			<path class="st0" d="M1545.16,150c47.32,0,93.14,9.23,136.19,27.44c41.66,17.62,79.11,42.88,111.3,75.07
				c32.19,32.19,57.45,69.64,75.07,111.3c18.21,43.05,27.44,88.87,27.44,136.19s-9.23,93.14-27.44,136.19
				c-17.62,41.66-42.88,79.11-75.07,111.3c-32.19,32.19-69.64,57.45-111.3,75.07c-43.05,18.21-88.87,27.44-136.19,27.44
				c-47.32,0-93.14-9.23-136.19-27.44c-41.66-17.62-79.11-42.88-111.3-75.07c-32.19-32.19-57.45-69.64-75.07-111.3
				c-18.21-43.05-27.44-88.87-27.44-136.19s9.23-93.14,27.44-136.19c17.62-41.66,42.88-79.11,75.07-111.3
				c32.19-32.19,69.64-57.45,111.3-75.07C1452.03,159.23,1497.85,150,1545.16,150 M1545.16,0c-276.14,0-500,223.86-500,500
				s223.86,500,500,500s500-223.86,500-500S1821.31,0,1545.16,0L1545.16,0z"/>
		</g>
	</g>
</g>
</svg>
