<?xml version="1.0" encoding="utf-8"?>
<!-- Generator: Adobe Illustrator 27.2.0, SVG Export Plug-In . SVG Version: 6.00 Build 0)  -->
<svg version="1.1" id="Layer_1" xmlns="http://www.w3.org/2000/svg" xmlns:xlink="http://www.w3.org/1999/xlink" x="0px" y="0px"
	 viewBox="0 0 1000 1000" style="enable-background:new 0 0 1000 1000;" xml:space="preserve">
<style type="text/css">
	.st0{fill:#34486C;}
</style>
<g>
	<path class="st0" d="M464.54,650.18c-19.18-6.26-21.47-32.51-3.82-42.28c50.87-28.15,90.16-75.83,106.76-134.63l38.75-137.28
		c6.85-24.22,10.09-48.41,10.09-72.1c0-140.62-114.09-262.88-263.58-262.88c-174.67,0-300.97,166.9-253.49,334.98L138,473.27
		c13.57,48.04,42.29,88.68,80.07,117.3c8.45,6.39,17.36,12.18,26.65,17.32c17.66,9.77,15.39,36.03-3.8,42.29
		c-78.43,25.61-149.29,78.95-196.1,160.05C-3.85,894.58,57,1000,154.38,1000H551.1c97.38,0,158.23-105.42,109.55-189.76
		C613.84,729.14,542.97,675.79,464.54,650.18z"/>
	<path class="st0" d="M779.08,589.13c-17.37-5.66-19.46-29.45-3.48-38.29c87.61-38.96,108.21-163.57,131.82-246.33
		C963.94,129.21,782.18-42.67,611.36,9.49c-16.1,4.92-21.65,25.11-10.5,37.73c119.18,134.94,83.33,281.37,30.32,444.03
		c-25.8,109.38-109.88,107.21-15.42,166.47c242.7,211.4,15.07,258.79,241.74,248.36C1088.54,864.55,922.85,623.1,779.08,589.13z"/>
</g>
</svg>
