<?xml version="1.0" encoding="UTF-8"?>
<svg id="Layer_1" data-name="Layer 1" xmlns="http://www.w3.org/2000/svg" viewBox="0 0 450.1 426.84">
  <defs>
    <style>
      .cls-1 {
        fill: #fff;
      }
    </style>
  </defs>
  <path class="cls-1" d="m197.99,136.43l-143.86,22.79v-27.1c0-14.96,12.13-29.01,27.09-31.38l287.66-45.56c14.96-2.37,27.09,7.84,27.09,22.8v27.09l-143.85,22.78v162.6l197.98-31.36v-54.13l-143.85,22.79v-54.34l143.85-22.78v-81.93c-.36-43.79-35.46-73.79-79.12-67.98L79.11,46.95C35.68,54.93.73,95.64,0,139.29v82.63l143.86-22.79v54.34L0,276.26v54.13l197.99-31.36v-162.6h0Z"/>
  <path class="cls-1" d="m445.46,314c-11.15,33.31-41.23,60.66-76.59,66.26l-287.64,45.56c-35.36,5.6-65.44-12.23-76.59-42l440.82-69.82Z"/>
</svg>